<svg width="20" height="20" viewBox="0 0 20 20" fill="none" xmlns="http://www.w3.org/2000/svg">
<path d="M1.15999 19.9992C1.0991 19.9989 1.04042 19.9737 0.995203 19.9284C0.949988 19.883 0.921413 19.8207 0.914955 19.7533V19.7525L0.000749349 9.44583L0 9.42C0 9.26833 0.110154 9.14583 0.246536 9.14583H6.41592V20L1.15999 19.9992ZM3.6778 17.2783V17.2792C3.6778 17.4936 3.73498 17.7032 3.8421 17.8815C3.94923 18.0598 4.10149 18.1987 4.27963 18.2808C4.45777 18.3629 4.65379 18.3843 4.8429 18.3425C5.03201 18.3007 5.20572 18.1974 5.34207 18.0458C5.47841 17.8942 5.57126 17.701 5.60888 17.4907C5.64649 17.2804 5.62719 17.0624 5.5534 16.8643C5.47961 16.6662 5.35466 16.4968 5.19433 16.3777C5.03401 16.2586 4.84552 16.195 4.65271 16.195H4.65121C4.11243 16.195 3.67631 16.68 3.67556 17.2792L3.6778 17.2783ZM4.03749 10.6117C4.03749 10.7625 4.14765 10.885 4.28403 10.885H4.85653C4.92172 10.885 4.98423 10.8562 5.03033 10.8049C5.07642 10.7537 5.10232 10.6842 5.10232 10.6117C5.10232 10.5392 5.07642 10.4697 5.03033 10.4184C4.98423 10.3671 4.92172 10.3383 4.85653 10.3383H4.27953C4.21415 10.3383 4.15144 10.3672 4.1052 10.4186C4.05897 10.4701 4.033 10.5398 4.033 10.6125V10.615L4.03749 10.6117ZM1.33234 10.6117C1.33234 10.7625 1.4425 10.885 1.57813 10.885H3.45525C3.52043 10.885 3.58295 10.8562 3.62904 10.8049C3.67514 10.7537 3.70103 10.6842 3.70103 10.6117C3.70103 10.5392 3.67514 10.4697 3.62904 10.4184C3.58295 10.3671 3.52043 10.3383 3.45525 10.3383H1.57363C1.50845 10.3383 1.44593 10.3671 1.39984 10.4184C1.35374 10.4697 1.32785 10.5392 1.32785 10.6117V10.6142L1.33234 10.6117ZM8.67596 18.435C8.54389 18.3854 8.41915 18.3144 8.30578 18.2242L8.31028 18.2275L8.23534 18.175C8.06079 18.0532 7.88841 17.9276 7.71829 17.7983L7.64261 17.7392C7.54369 17.66 7.49724 17.625 7.44628 17.6283C7.26644 17.6325 7.08659 17.6342 6.90675 17.6367V10.0075L6.89701 9.36583C7.23496 9.12667 7.54669 8.89917 7.64036 8.8125C7.76775 8.5275 7.89364 8.28917 8.03302 8.06083L8.02028 8.08333C8.08398 7.9725 8.14767 7.8625 8.20612 7.75333L9.498 5.34167C9.55794 5.22833 9.62314 5.115 9.68833 5.00167C9.79699 4.82167 9.91239 4.60667 10.018 4.385L10.036 4.34417C10.0952 4.20958 10.1159 4.05805 10.0952 3.91L10.096 3.91417L10.0915 1.31417C10.1387 0.935833 10.3305 0.615833 10.601 0.420833L10.6055 0.4175C10.8467 0.175936 11.1527 0.029494 11.4763 0.000833333H11.4815L11.5287 0C11.7843 0 12.0255 0.0675 12.2399 0.186667L12.2309 0.181667C12.374 0.258333 12.4961 0.34 12.6108 0.431667L12.6033 0.425833L12.6827 0.484167C12.8633 0.59 12.9982 0.768333 13.0582 0.984167L13.0597 0.99C13.1998 1.57 13.3279 2.0975 13.4471 2.62667L13.4965 2.8425C13.5722 3.12583 13.6374 3.46833 13.6794 3.81917L13.6831 3.85417C13.555 5.16583 13.3084 6.3625 12.9517 7.5025L12.9832 7.3875L18.748 7.37833H18.7689C18.9436 7.37835 19.1162 7.41969 19.2754 7.4996C19.4346 7.57951 19.5766 7.69616 19.6921 7.84181C19.8077 7.98746 19.894 8.15878 19.9454 8.34439C19.9968 8.52999 20.0122 8.72564 19.9904 8.91833L19.9911 8.91167C20.0073 9.2028 19.9538 9.4935 19.8361 9.75419C19.7184 10.0149 19.5408 10.2363 19.3212 10.3958L19.3152 10.4C19.5255 10.7419 19.6239 11.1538 19.594 11.5667V11.5608C19.6202 11.888 19.5517 12.216 19.3984 12.4968C19.2451 12.7776 19.0151 12.9966 18.742 13.1217L18.733 13.125C18.9006 13.4573 18.9784 13.8364 18.957 14.2167V14.2117C18.9733 14.4965 18.9203 14.781 18.8034 15.0352C18.6866 15.2893 18.5103 15.5037 18.2931 15.6558L18.2871 15.66C18.4402 16.0412 18.4981 16.4611 18.455 16.8758L18.4557 16.865V17.0217C18.445 17.2269 18.3971 17.4276 18.315 17.6118C18.2328 17.796 18.1181 17.9599 17.9777 18.0937C17.8373 18.2274 17.6741 18.3283 17.4978 18.3902C17.3215 18.4522 17.1358 18.4739 16.9518 18.4542L16.957 18.455H13.6381L13.6269 18.4558L13.6149 18.455H13.6157H9.18702C9.1488 18.455 9.10908 18.455 9.06712 18.4617C9.01617 18.465 8.96221 18.47 8.90676 18.47H8.89552C8.81983 18.4701 8.74447 18.4589 8.67146 18.4367L8.67746 18.4383L8.67596 18.435ZM4.16863 17.2792C4.16868 17.2091 4.18114 17.1397 4.20531 17.0749C4.22947 17.0102 4.26487 16.9514 4.30947 16.9019C4.35407 16.8523 4.40701 16.8131 4.46526 16.7863C4.52351 16.7595 4.58593 16.7458 4.64896 16.7458C4.71199 16.7459 4.77439 16.7597 4.8326 16.7866C4.89082 16.8135 4.9437 16.8529 4.98823 16.9025C5.03277 16.9521 5.06808 17.0109 5.09215 17.0757C5.11623 17.1405 5.12859 17.2099 5.12854 17.28C5.12844 17.4216 5.07778 17.5573 4.9877 17.6573C4.89762 17.7573 4.7755 17.8134 4.64821 17.8133C4.52092 17.8132 4.39888 17.7569 4.30894 17.6567C4.219 17.5565 4.16853 17.4207 4.16863 17.2792Z" fill="black"/>
</svg>
