<svg width="20" height="20" viewBox="0 0 20 20" fill="none" xmlns="http://www.w3.org/2000/svg">
<path d="M10 0C4.47715 0 0 4.47715 0 10C0 15.5229 4.47715 20 10 20C15.5229 20 20 15.5229 20 10C20 4.47715 15.5229 0 10 0ZM7.61475 3.68163H14.1895V6.54907L14.6008 6.13892L16.6406 8.17748L11.8237 12.9956L8.80372 13.9771L9.78393 10.9558L13.0847 7.65503V4.78027H8.42042V6.75903H6.34033V15.2197H13.0847V13.396L14.1895 12.2901V16.3184H5.23437V5.98022L7.61475 3.68163ZM10.2942 11.4649L9.80347 12.9761L11.3135 12.4854L10.2942 11.4649Z" fill="black"/>
</svg>
