<svg width="704" height="896" viewBox="0 0 704 896" fill="none" xmlns="http://www.w3.org/2000/svg">
<path d="M393.1 445.1L315.3 544.3L274.2 491.9C273.452 490.944 272.496 490.171 271.404 489.639C270.312 489.107 269.114 488.831 267.9 488.831C266.686 488.831 265.488 489.107 264.396 489.639C263.304 490.171 262.348 490.944 261.6 491.9L161.8 619.1C160.877 620.279 160.304 621.694 160.147 623.183C159.99 624.673 160.255 626.176 160.912 627.522C161.569 628.868 162.592 630.001 163.863 630.793C165.134 631.585 166.602 632.003 168.1 632H536C542.7 632 546.4 624.3 542.3 619.1L405.8 445.1C405.042 444.142 404.077 443.369 402.977 442.837C401.877 442.305 400.672 442.029 399.45 442.029C398.228 442.029 397.023 442.305 395.923 442.837C394.823 443.369 393.858 444.142 393.1 445.1V445.1ZM200 378C200 388.609 204.214 398.783 211.716 406.284C219.217 413.786 229.391 418 240 418C250.609 418 260.783 413.786 268.284 406.284C275.786 398.783 280 388.609 280 378C280 367.391 275.786 357.217 268.284 349.716C260.783 342.214 250.609 338 240 338C229.391 338 219.217 342.214 211.716 349.716C204.214 357.217 200 367.391 200 378ZM694.6 224.6L479.4 9.4C473.4 3.4 465.3 0 456.8 0H32C14.3 0 0 14.3 0 32V864C0 881.7 14.3 896 32 896H672C689.7 896 704 881.7 704 864V247.3C704 238.8 700.6 230.6 694.6 224.6ZM630.2 262H442V73.8L630.2 262ZM632 824H72V72H374V288C374 299.139 378.425 309.822 386.302 317.698C394.178 325.575 404.861 330 416 330H632V824Z" fill="black"/>
</svg>
