<svg width="17" height="18" viewBox="0 0 17 18" fill="none" xmlns="http://www.w3.org/2000/svg">
<path d="M11.5761 0.873595C12.1353 0.31432 12.8937 7.81547e-05 13.6846 1.45764e-08C14.4754 -7.81256e-05 15.2339 0.314013 15.7932 0.873178C16.3525 1.43234 16.6667 2.19078 16.6668 2.98163C16.6669 3.77249 16.3528 4.53099 15.7936 5.09026L15.0503 5.8336L10.8336 1.61693L11.5761 0.873595ZM9.9503 2.50026L1.61696 10.8328C1.27832 11.1715 1.04033 11.5976 0.929463 12.0636L0.016963 15.8978C-0.00774401 16.0016 -0.00542755 16.1101 0.0236915 16.2128C0.0528106 16.3156 0.107761 16.4091 0.183303 16.4846C0.258845 16.56 0.352458 16.6149 0.455216 16.6439C0.557974 16.6729 0.666449 16.6751 0.770296 16.6503L4.60446 15.7378C5.07056 15.6267 5.49666 15.3884 5.8353 15.0494L6.79446 14.0911C6.59673 13.2016 6.62658 12.2766 6.88125 11.4018C7.13592 10.5269 7.60717 9.73038 8.2514 9.08599C8.89562 8.4416 9.692 7.97013 10.5668 7.71524C11.4416 7.46035 12.3666 7.43026 13.2561 7.62776L14.167 6.71693L9.94946 2.50026H9.9503ZM9.39863 9.98026C9.46081 10.1957 9.47888 10.4215 9.45174 10.6441C9.42461 10.8667 9.35283 11.0815 9.24072 11.2757C9.1286 11.4699 8.97844 11.6395 8.79924 11.7743C8.62004 11.9091 8.41547 12.0064 8.1978 12.0603L7.71113 12.1811C7.63313 12.6801 7.63482 13.1884 7.71613 13.6869L8.16613 13.7953C8.38578 13.8482 8.59238 13.9452 8.77338 14.0804C8.95437 14.2156 9.10598 14.3863 9.219 14.5819C9.33202 14.7775 9.40407 14.9941 9.4308 15.2184C9.45753 15.4428 9.43836 15.6702 9.37446 15.8869L9.21863 16.4128C9.5853 16.7344 10.002 16.9961 10.4561 17.1811L10.867 16.7486C11.0227 16.5848 11.21 16.4544 11.4177 16.3653C11.6253 16.2762 11.8489 16.2303 12.0749 16.2303C12.3008 16.2303 12.5244 16.2762 12.7321 16.3653C12.9397 16.4544 13.1271 16.5848 13.2828 16.7486L13.6986 17.1869C14.1495 17.0034 14.5669 16.7463 14.9336 16.4261L14.7686 15.8544C14.7065 15.6389 14.6884 15.4131 14.7156 15.1904C14.7428 14.9678 14.8146 14.7529 14.9269 14.5587C15.0391 14.3645 15.1893 14.1949 15.3686 14.0602C15.5479 13.9254 15.7525 13.8282 15.9703 13.7744L16.4561 13.6536C16.5341 13.1545 16.5324 12.6463 16.4511 12.1478L16.0011 12.0394C15.7816 11.9864 15.575 11.8893 15.3941 11.7541C15.2132 11.6188 15.0617 11.4482 14.9488 11.2526C14.8359 11.0569 14.7639 10.8404 14.7372 10.6161C14.7105 10.3918 14.7297 10.1644 14.7936 9.94776L14.9486 9.42193C14.582 9.0989 14.164 8.83923 13.712 8.6536L13.3011 9.08526C13.1454 9.24916 12.958 9.37966 12.7503 9.46884C12.5426 9.55802 12.3189 9.60401 12.0928 9.60401C11.8667 9.60401 11.643 9.55802 11.4353 9.46884C11.2276 9.37966 11.0402 9.24916 10.8845 9.08526L10.4695 8.64776C10.0161 8.8311 9.59946 9.08943 9.23363 9.4086L9.39863 9.98026V9.98026ZM12.0836 14.1669C11.417 14.1669 10.8753 13.6078 10.8753 12.9169C10.8753 12.2269 11.417 11.6669 12.0836 11.6669C12.7503 11.6669 13.292 12.2269 13.292 12.9169C13.292 13.6078 12.7503 14.1669 12.0836 14.1669Z" fill="black"/>
</svg>
