<svg width="704" height="896" viewBox="0 0 704 896" fill="none" xmlns="http://www.w3.org/2000/svg">
<path d="M136 328H200V392H136V328ZM136 518V678H264V518H200V456H136V518ZM216 566V630H184V566H216ZM200 264H264V328H200V264ZM136 200H200V264H136V200ZM200 392H264V456H200V392ZM200 136H264V200H200V136ZM694.6 224.6L479.4 9.4C473.4 3.4 465.3 0 456.8 0H32C14.3 0 0 14.3 0 32V864C0 881.7 14.3 896 32 896H672C689.7 896 704 881.7 704 864V247.3C704 238.8 700.6 230.6 694.6 224.6ZM630.2 262H442V73.8L630.2 262ZM632 824H72V72H136V136H200V72H374V288C374 299.139 378.425 309.822 386.302 317.698C394.178 325.575 404.861 330 416 330H632V824Z" fill="black"/>
</svg>
